Coordinates
version=1
nRows=12
nColumns=24
inDegrees=yes

Units are S.I. units (second, meters, Newtons, ...)
Angles are in degrees.

endheader
time	pelvis_tilt	pelvis_list	pelvis_rotation	pelvis_tx	pelvis_ty	pelvis_tz	hip_flexion_r	hip_adduction_r	hip_rotation_r	knee_angle_r	ankle_angle_r	subtalar_angle_r	mtp_angle_r	hip_flexion_l	hip_adduction_l	hip_rotation_l	knee_angle_l	ankle_angle_l	subtalar_angle_l	mtp_angle_l	lumbar_extension	lumbar_bending	lumbar_rotation
      0.47100000	     -2.69997153	      4.07855831	      1.27568085	     -0.85568187	      0.99802548	      0.28337077	     24.56656728	     -3.77669473	     -7.28945317	      0.22848824	     -0.75548470	     -7.28258418	     -0.46660729	     -7.48555252	      5.64004913	     -5.83891526	    -10.47971966	     11.89762960	    -10.39368801	     -0.58488422	    -10.78142851	     -4.39939557	     -1.18281979
      0.47516667	     -2.41936727	      3.95813603	      1.17212961	     -0.84963716	      0.99771085	      0.28387589	     24.30906430	     -3.58139536	     -7.14457830	     -0.05206514	     -0.93502299	     -7.35423134	     -0.76795561	     -7.91166990	      5.42372503	     -6.07924800	    -10.99863664	     12.10110980	     -9.98294064	     -1.12208152	    -11.07210881	     -4.21095607	     -1.14134544
      0.47933333	     -2.23828634	      3.87130502	      1.19619205	     -0.84373194	      0.99731815	      0.28397635	     24.19998125	     -3.49625066	     -7.16342037	     -0.51042148	     -1.04717105	     -7.38017314	     -4.57527468	     -8.20414898	      5.27405762	     -5.95212509	    -11.56571040	     12.33784522	     -9.88220185	     -8.90774790	    -11.26971390	     -4.02373444	     -1.15922159
      0.48350000	     -2.01773106	      3.75065650	      1.19649508	     -0.83769120	      0.99702168	      0.28418979	     24.02424422	     -3.35844039	     -7.16097648	     -0.97568784	     -1.25940205	     -7.55020945	     -4.51799297	     -8.52735805	      5.06894432	     -5.95441546	    -12.15146438	     12.47761871	     -9.70280918	     -8.90844321	    -11.48127263	     -3.80640361	     -1.17253760
      0.48766667	     -1.77733915	      3.58525497	      1.21195560	     -0.83162122	      0.99682334	      0.28438583	     23.80905363	     -3.18045246	     -7.16724210	     -1.46071720	     -1.54151270	     -7.73746154	     -4.42492759	     -8.83151156	      4.80504750	     -5.98222012	    -12.81818096	     12.57725531	     -9.51952535	     -8.88876112	    -11.73004762	     -3.52149875	     -1.20194456
      0.49183333	     -1.64696621	      3.50252762	      1.17359977	     -0.82559389	      0.99642693	      0.28461961	     23.78901891	     -3.07838494	     -7.14974708	     -2.12277527	     -1.75411265	     -7.80866221	     -4.40872023	     -9.00054436	      4.65724558	     -5.97738287	    -13.51045463	     12.55437811	     -9.58874335	     -8.88243455	    -11.84353613	     -3.36220357	     -1.19718355
      0.49600000	     -1.29415192	      3.24760825	      1.21307639	     -0.81939652	      0.99652264	      0.28482048	     23.40164715	     -2.80915624	     -7.19229926	     -2.60699185	     -2.18985176	     -8.21685262	     -4.27311306	     -9.38014814	      4.27209309	     -6.05227439	    -14.27092346	     12.67238857	     -9.22420148	     -8.80829039	    -12.21189394	     -2.96197782	     -1.23938450
      0.50016667	     -1.00525164	      3.07278371	      1.19724507	     -0.81327479	      0.99650292	      0.28506686	     23.14509016	     -2.61052407	     -7.17917469	     -3.22235162	     -2.56800486	     -8.52686241	     -4.12460654	     -9.66657496	      3.99908826	     -6.09951152	    -15.06833296	     12.66849548	     -9.12780557	     -8.71084060	    -12.50756252	     -2.66688037	     -1.23331586
      0.50433333	     -0.76585658	      2.87706197	      1.18732728	     -0.80708055	      0.99646264	      0.28531721	     22.93117412	     -2.39265038	     -7.18161461	     -3.85133063	     -2.98697126	     -8.84973308	     -3.96302106	     -9.86447308	      3.69632316	     -6.18019588	    -15.93327942	     12.60692219	     -9.01051971	     -8.58436101	    -12.73917195	     -2.35395503	     -1.23759633
      0.50850000	     -0.45447452	      2.67915510	      1.08661374	     -0.80088014	      0.99653787	      0.28578280	     22.64794093	     -2.13051016	     -7.07468138	     -4.49536092	     -3.41849205	     -9.19845375	     -3.59857958	    -10.12352225	      3.38994567	     -6.40183458	    -16.82770445	     12.50118691	     -8.86760719	     -8.25581886	    -13.04990769	     -2.04986311	     -1.21636112
      0.51266667	     -0.31219204	      2.52838402	      1.11098972	     -0.79477530	      0.99642178	      0.28594306	     22.55954213	     -1.98231633	     -7.09441846	     -5.20442950	     -3.83461020	     -9.52557045	     -3.49976060	    -10.13186275	      3.14274559	     -6.37720933	    -17.84036978	     12.34761737	     -8.90662807	     -8.14805800	    -13.18753654	     -1.79372327	     -1.15928532
      0.51683333	      0.02159384	      2.29847963	      0.97538761	     -0.78851197	      0.99661168	      0.28654175	     22.22880837	     -1.66483076	     -6.93288024	     -5.83393540	     -4.33133584	    -10.02216924	     -3.11678944	    -10.34779681	      2.78422520	     -6.71477499	    -18.86091010	     12.14107831	     -8.69338980	     -7.68480761	    -13.51551064	     -1.45813910	     -1.13570046
